<svg width="85" height="27" viewBox="0 0 85 27" fill="none" xmlns="http://www.w3.org/2000/svg">
<path fill-rule="evenodd" clip-rule="evenodd" d="M79.7295 6.75401C78.282 4.31134 70.0932 5.60052 66.4262 6.16595C65.3061 6.34689 65.1372 5.06675 66.1436 4.14849C72.6918 -1.86772 83.3552 -0.13523 84.6028 1.88676C85.8504 3.90875 84.2788 17.9903 78.1579 24.7031C77.217 25.7345 76.3209 25.1871 76.7793 23.8165C78.1579 19.3111 81.239 9.20572 79.7777 6.75401" fill="#FF9900"/>
<path fill-rule="evenodd" clip-rule="evenodd" d="M74.6482 13.3404C65.6022 22.0952 52.4939 26.7597 41.209 26.7597C25.3532 26.7597 11.1323 19.0813 0.353117 6.29709C-0.467007 5.29244 0.265637 3.92181 1.28259 4.704C12.9147 13.5916 27.3215 18.9378 42.1548 18.9378C52.8671 18.873 63.464 16.0294 73.336 10.5705C74.8669 9.7165 76.1517 11.8837 74.6482 13.3404Z" fill="#FF9900"/>
</svg>
