<svg width="21" height="15" viewBox="0 0 21 15" fill="none" xmlns="http://www.w3.org/2000/svg">
<path d="M19.9332 7.36426L1 7.36426L19.9332 7.36426Z" fill="#31446B"/>
<path d="M19.9332 8.36426C20.4854 8.36426 20.9332 7.91654 20.9332 7.36426C20.9332 6.81197 20.4854 6.36426 19.9332 6.36426L19.9332 7.36426L19.9332 8.36426ZM0.292893 6.65715C-0.0976311 7.04768 -0.0976311 7.68084 0.292893 8.07136L6.65685 14.4353C7.04738 14.8258 7.68054 14.8258 8.07107 14.4353C8.46159 14.0448 8.46159 13.4116 8.07107 13.0211L2.41421 7.36426L8.07107 1.7074C8.46159 1.31688 8.46159 0.683714 8.07107 0.29319C7.68054 -0.0973346 7.04738 -0.0973346 6.65685 0.29319L0.292893 6.65715ZM19.9332 7.36426L19.9332 6.36426L1 6.36426L1 7.36426L1 8.36426L19.9332 8.36426L19.9332 7.36426Z" fill="#31446B"/>
</svg>
