<svg width="32" height="32" viewBox="0 0 32 32" fill="none" xmlns="http://www.w3.org/2000/svg">
<path d="M26.11 2.66455L11.89 1.06955C11.7497 1.05402 11.6078 1.06836 11.4735 1.11161C11.3391 1.15487 11.2155 1.22606 11.1106 1.32052C11.0058 1.41497 10.9221 1.53054 10.8652 1.65964C10.8082 1.78874 10.7791 1.92843 10.78 2.06955V2.99955H6C5.73478 2.99955 5.48043 3.1049 5.29289 3.29244C5.10536 3.47998 5 3.73433 5 3.99955V27.9995C5 28.2648 5.10536 28.5191 5.29289 28.7067C5.48043 28.8942 5.73478 28.9995 6 28.9995H10.78V29.9445C10.78 30.2098 10.8854 30.4641 11.0729 30.6517C11.2604 30.8392 11.5148 30.9445 11.78 30.9445C11.88 30.9445 26 29.3545 26.11 29.3445C26.3557 29.3174 26.5827 29.2001 26.747 29.0154C26.9114 28.8308 27.0015 28.5918 27 28.3445V3.65455C26.999 3.40905 26.9078 3.1725 26.7437 2.98993C26.5795 2.80736 26.354 2.69155 26.11 2.66455ZM10.78 26.9995H7V4.99955H10.78V26.9995ZM17 17.2795C17 17.5448 16.8946 17.7991 16.7071 17.9867C16.5196 18.1742 16.2652 18.2795 16 18.2795C15.7348 18.2795 15.4804 18.1742 15.2929 17.9867C15.1054 17.7991 15 17.5448 15 17.2795V14.7195C15 14.4543 15.1054 14.2 15.2929 14.0124C15.4804 13.8249 15.7348 13.7195 16 13.7195C16.2652 13.7195 16.5196 13.8249 16.7071 14.0124C16.8946 14.2 17 14.4543 17 14.7195V17.2795Z" fill="#31446B"/>
</svg>
