<svg width="504" height="482" viewBox="0 0 504 482" fill="none" xmlns="http://www.w3.org/2000/svg">
<rect x="202" y="54" width="33" height="32" rx="2" fill="#D5F0D8"/>
<path d="M223.168 66H219L219.806 61.165C219.83 61.0216 219.822 60.8748 219.784 60.7347C219.745 60.5945 219.677 60.4645 219.583 60.3536C219.489 60.2427 219.372 60.1536 219.24 60.0925C219.108 60.0315 218.964 59.9999 218.819 60H213.667C213.43 60.0001 213.202 60.084 213.021 60.2369C212.841 60.3898 212.72 60.6017 212.681 60.835L211.014 70.835C210.99 70.9783 210.998 71.125 211.036 71.2651C211.075 71.4052 211.143 71.5352 211.237 71.646C211.331 71.7569 211.448 71.846 211.579 71.9071C211.711 71.9683 211.855 72 212 72H216V80L224.01 67.541C224.107 67.3899 224.162 67.2153 224.168 67.0358C224.175 66.8562 224.133 66.6782 224.047 66.5205C223.96 66.3628 223.833 66.2313 223.679 66.1397C223.524 66.0481 223.348 65.9998 223.168 66Z" fill="#31446B"/>
<rect x="433" y="361" width="33" height="32" rx="2" fill="#D5F0D8"/>
<path d="M454.168 373H450L450.806 368.165C450.83 368.022 450.822 367.875 450.784 367.735C450.745 367.595 450.677 367.464 450.583 367.354C450.489 367.243 450.372 367.154 450.24 367.093C450.108 367.031 449.964 367 449.819 367H444.667C444.43 367 444.202 367.084 444.021 367.237C443.841 367.39 443.72 367.602 443.681 367.835L442.014 377.835C441.99 377.978 441.998 378.125 442.036 378.265C442.075 378.405 442.143 378.535 442.237 378.646C442.331 378.757 442.448 378.846 442.579 378.907C442.711 378.968 442.855 379 443 379H447V387L455.01 374.541C455.107 374.39 455.162 374.215 455.168 374.036C455.175 373.856 455.133 373.678 455.047 373.521C454.96 373.363 454.833 373.231 454.679 373.14C454.524 373.048 454.348 373 454.168 373Z" fill="#31446B"/>
<rect x="115" y="450" width="33" height="32" rx="2" fill="#D5F0D8"/>
<path d="M136.168 462H132L132.806 457.165C132.83 457.022 132.822 456.875 132.784 456.735C132.745 456.595 132.677 456.464 132.583 456.354C132.489 456.243 132.372 456.154 132.24 456.093C132.108 456.031 131.964 456 131.819 456H126.667C126.43 456 126.202 456.084 126.021 456.237C125.841 456.39 125.72 456.602 125.681 456.835L124.014 466.835C123.99 466.978 123.998 467.125 124.036 467.265C124.075 467.405 124.143 467.535 124.237 467.646C124.331 467.757 124.448 467.846 124.579 467.907C124.711 467.968 124.855 468 125 468H129V476L137.01 463.541C137.107 463.39 137.162 463.215 137.168 463.036C137.175 462.856 137.133 462.678 137.047 462.521C136.96 462.363 136.833 462.231 136.679 462.14C136.524 462.048 136.348 462 136.168 462Z" fill="#31446B"/>
<rect x="433" y="106" width="33" height="32" rx="2" fill="#D5F0D8"/>
<path d="M454.168 118H450L450.806 113.165C450.83 113.022 450.822 112.875 450.784 112.735C450.745 112.595 450.677 112.464 450.583 112.354C450.489 112.243 450.372 112.154 450.24 112.093C450.108 112.031 449.964 112 449.819 112H444.667C444.43 112 444.202 112.084 444.021 112.237C443.841 112.39 443.72 112.602 443.681 112.835L442.014 122.835C441.99 122.978 441.998 123.125 442.036 123.265C442.075 123.405 442.143 123.535 442.237 123.646C442.331 123.757 442.448 123.846 442.579 123.907C442.711 123.968 442.855 124 443 124H447V132L455.01 119.541C455.107 119.39 455.162 119.215 455.168 119.036C455.175 118.856 455.133 118.678 455.047 118.521C454.96 118.363 454.833 118.231 454.679 118.14C454.524 118.048 454.348 118 454.168 118Z" fill="#31446B"/>
<rect x="471" y="254" width="33" height="32" rx="2" fill="#B062E0"/>
<path d="M492.168 266H488L488.806 261.165C488.83 261.022 488.822 260.875 488.784 260.735C488.745 260.595 488.677 260.464 488.583 260.354C488.489 260.243 488.372 260.154 488.24 260.093C488.108 260.031 487.964 260 487.819 260H482.667C482.43 260 482.202 260.084 482.021 260.237C481.841 260.39 481.72 260.602 481.681 260.835L480.014 270.835C479.99 270.978 479.998 271.125 480.036 271.265C480.075 271.405 480.143 271.535 480.237 271.646C480.331 271.757 480.448 271.846 480.579 271.907C480.711 271.968 480.855 272 481 272H485V280L493.01 267.541C493.107 267.39 493.162 267.215 493.168 267.036C493.175 266.856 493.133 266.678 493.047 266.521C492.96 266.363 492.833 266.231 492.679 266.14C492.524 266.048 492.348 266 492.168 266Z" fill="#FFDB52"/>
<rect x="106" y="298" width="33" height="32" rx="2" fill="#B062E0"/>
<path d="M127.168 310H123L123.806 305.165C123.83 305.022 123.822 304.875 123.784 304.735C123.745 304.595 123.677 304.464 123.583 304.354C123.489 304.243 123.372 304.154 123.24 304.093C123.108 304.031 122.964 304 122.819 304H117.667C117.43 304 117.202 304.084 117.021 304.237C116.841 304.39 116.72 304.602 116.681 304.835L115.014 314.835C114.99 314.978 114.998 315.125 115.036 315.265C115.075 315.405 115.143 315.535 115.237 315.646C115.331 315.757 115.448 315.846 115.579 315.907C115.711 315.968 115.855 316 116 316H120V324L128.01 311.541C128.107 311.39 128.162 311.215 128.168 311.036C128.175 310.856 128.133 310.678 128.047 310.521C127.96 310.363 127.833 310.231 127.679 310.14C127.524 310.048 127.348 310 127.168 310Z" fill="#FFDB52"/>
<rect y="176" width="33" height="32" rx="2" fill="#F521A1"/>
<path d="M21.168 188H17L17.806 183.165C17.83 183.022 17.8224 182.875 17.7839 182.735C17.7453 182.595 17.6767 182.464 17.5827 182.354C17.4888 182.243 17.3718 182.154 17.2399 182.093C17.108 182.031 16.9644 182 16.819 182H11.667C11.4305 182 11.2016 182.084 11.0211 182.237C10.8405 182.39 10.72 182.602 10.681 182.835L9.01401 192.835C8.99004 192.978 8.99758 193.125 9.03608 193.265C9.07459 193.405 9.14315 193.535 9.23699 193.646C9.33084 193.757 9.44771 193.846 9.57948 193.907C9.71125 193.968 9.85475 194 10 194H14V202L22.01 189.541C22.1072 189.39 22.1619 189.215 22.1683 189.036C22.1748 188.856 22.1327 188.678 22.0465 188.521C21.9604 188.363 21.8333 188.231 21.6787 188.14C21.5241 188.048 21.3477 188 21.168 188Z" fill="#FFDB52"/>
<rect x="466" width="33" height="32" rx="2" fill="#F521A1"/>
<path d="M487.168 12H483L483.806 7.165C483.83 7.02165 483.822 6.87479 483.784 6.73466C483.745 6.59453 483.677 6.46448 483.583 6.35359C483.489 6.24269 483.372 6.15361 483.24 6.09254C483.108 6.03148 482.964 5.9999 482.819 6H477.667C477.43 6.00007 477.202 6.084 477.021 6.23688C476.841 6.38976 476.72 6.60168 476.681 6.835L475.014 16.835C474.99 16.9783 474.998 17.125 475.036 17.2651C475.075 17.4052 475.143 17.5352 475.237 17.646C475.331 17.7569 475.448 17.846 475.579 17.9071C475.711 17.9683 475.855 18 476 18H480V26L488.01 13.541C488.107 13.3899 488.162 13.2153 488.168 13.0358C488.175 12.8562 488.133 12.6782 488.047 12.5205C487.96 12.3628 487.833 12.2313 487.679 12.1397C487.524 12.0481 487.348 11.9998 487.168 12Z" fill="#FFDB52"/>
<rect x="300" y="314" width="33" height="32" rx="2" fill="#F521A1"/>
<path d="M321.168 326H317L317.806 321.165C317.83 321.022 317.822 320.875 317.784 320.735C317.745 320.595 317.677 320.464 317.583 320.354C317.489 320.243 317.372 320.154 317.24 320.093C317.108 320.031 316.964 320 316.819 320H311.667C311.43 320 311.202 320.084 311.021 320.237C310.841 320.39 310.72 320.602 310.681 320.835L309.014 330.835C308.99 330.978 308.998 331.125 309.036 331.265C309.075 331.405 309.143 331.535 309.237 331.646C309.331 331.757 309.448 331.846 309.579 331.907C309.711 331.968 309.855 332 310 332H314V340L322.01 327.541C322.107 327.39 322.162 327.215 322.168 327.036C322.175 326.856 322.133 326.678 322.047 326.521C321.96 326.363 321.833 326.231 321.679 326.14C321.524 326.048 321.348 326 321.168 326Z" fill="#FFDB52"/>
</svg>
