<svg width="26" height="26" viewBox="0 0 26 26" fill="none" xmlns="http://www.w3.org/2000/svg">
<path opacity="0.5" d="M4.33333 21.6667H10.725V16.8639H14.4444V12.0611H18.1639V7.22222H21.6667V4.33333H15.275V9.13611H11.5556V13.9389H7.83611V18.7778H4.33333V21.6667ZM2.88889 26C2.09444 26 1.41459 25.7174 0.849333 25.1521C0.284074 24.5868 0.000962963 23.9065 0 23.1111V2.88889C0 2.09444 0.283111 1.41459 0.849333 0.849333C1.41556 0.284074 2.09541 0.000962963 2.88889 0H23.1111C23.9056 0 24.5859 0.283111 25.1521 0.849333C25.7183 1.41556 26.001 2.09541 26 2.88889V23.1111C26 23.9056 25.7174 24.5859 25.1521 25.1521C24.5868 25.7183 23.9065 26.001 23.1111 26H2.88889ZM2.88889 23.1111H23.1111V2.88889H2.88889V23.1111Z" fill="#5C306D"/>
</svg>
