<svg width="625" height="32" viewBox="0 0 625 32" fill="none" xmlns="http://www.w3.org/2000/svg">
<rect width="33" height="32" rx="2" fill="#B1A3EE"/>
<path d="M21.1677 12H16.9997L17.8057 7.165C17.8297 7.02165 17.8221 6.87479 17.7836 6.73466C17.745 6.59453 17.6764 6.46448 17.5824 6.35359C17.4885 6.24269 17.3715 6.15361 17.2396 6.09254C17.1077 6.03148 16.964 5.9999 16.8187 6H11.6667C11.4301 6.00007 11.2013 6.084 11.0207 6.23688C10.8402 6.38976 10.7197 6.60168 10.6807 6.835L9.01371 16.835C8.98974 16.9783 8.99727 17.125 9.03578 17.2651C9.07429 17.4052 9.14285 17.5352 9.23669 17.646C9.33053 17.7569 9.4474 17.846 9.57917 17.9071C9.71094 17.9683 9.85445 18 9.99971 18H13.9997V26L22.0097 13.541C22.1069 13.3899 22.1616 13.2153 22.168 13.0358C22.1745 12.8562 22.1324 12.6782 22.0462 12.5205C21.9601 12.3628 21.833 12.2313 21.6784 12.1397C21.5238 12.0481 21.3474 11.9998 21.1677 12Z" fill="#FFDB52"/>
<rect x="37" width="33" height="32" rx="2" fill="#D5F0D8"/>
<path d="M58.1677 12H53.9997L54.8057 7.165C54.8297 7.02165 54.8221 6.87479 54.7836 6.73466C54.745 6.59453 54.6764 6.46448 54.5824 6.35359C54.4885 6.24269 54.3715 6.15361 54.2396 6.09254C54.1077 6.03148 53.964 5.9999 53.8187 6H48.6667C48.4301 6.00007 48.2013 6.084 48.0207 6.23688C47.8402 6.38976 47.7197 6.60168 47.6807 6.835L46.0137 16.835C45.9897 16.9783 45.9973 17.125 46.0358 17.2651C46.0743 17.4052 46.1428 17.5352 46.2367 17.646C46.3305 17.7569 46.4474 17.846 46.5792 17.9071C46.7109 17.9683 46.8544 18 46.9997 18H50.9997V26L59.0097 13.541C59.1069 13.3899 59.1616 13.2153 59.168 13.0358C59.1745 12.8562 59.1324 12.6782 59.0462 12.5205C58.9601 12.3628 58.833 12.2313 58.6784 12.1397C58.5238 12.0481 58.3474 11.9998 58.1677 12Z" fill="#31446B"/>
<rect x="74" width="33" height="32" rx="2" fill="#D5F0D8"/>
<path d="M95.1677 12H90.9997L91.8057 7.165C91.8297 7.02165 91.8221 6.87479 91.7836 6.73466C91.745 6.59453 91.6764 6.46448 91.5824 6.35359C91.4885 6.24269 91.3715 6.15361 91.2396 6.09254C91.1077 6.03148 90.964 5.9999 90.8187 6H85.6667C85.4301 6.00007 85.2013 6.084 85.0207 6.23688C84.8402 6.38976 84.7197 6.60168 84.6807 6.835L83.0137 16.835C82.9897 16.9783 82.9973 17.125 83.0358 17.2651C83.0743 17.4052 83.1428 17.5352 83.2367 17.646C83.3305 17.7569 83.4474 17.846 83.5792 17.9071C83.7109 17.9683 83.8544 18 83.9997 18H87.9997V26L96.0097 13.541C96.1069 13.3899 96.1616 13.2153 96.168 13.0358C96.1745 12.8562 96.1324 12.6782 96.0462 12.5205C95.9601 12.3628 95.833 12.2313 95.6784 12.1397C95.5238 12.0481 95.3474 11.9998 95.1677 12Z" fill="#31446B"/>
<rect x="111" width="33" height="32" rx="2" fill="#D5F0D8"/>
<path d="M132.168 12H128L128.806 7.165C128.83 7.02165 128.822 6.87479 128.784 6.73466C128.745 6.59453 128.676 6.46448 128.582 6.35359C128.488 6.24269 128.371 6.15361 128.24 6.09254C128.108 6.03148 127.964 5.9999 127.819 6H122.667C122.43 6.00007 122.201 6.084 122.021 6.23688C121.84 6.38976 121.72 6.60168 121.681 6.835L120.014 16.835C119.99 16.9783 119.997 17.125 120.036 17.2651C120.074 17.4052 120.143 17.5352 120.237 17.646C120.331 17.7569 120.447 17.846 120.579 17.9071C120.711 17.9683 120.854 18 121 18H125V26L133.01 13.541C133.107 13.3899 133.162 13.2153 133.168 13.0358C133.174 12.8562 133.132 12.6782 133.046 12.5205C132.96 12.3628 132.833 12.2313 132.678 12.1397C132.524 12.0481 132.347 11.9998 132.168 12Z" fill="#31446B"/>
<rect x="148" width="33" height="32" rx="2" fill="#D5F0D8"/>
<path d="M169.168 12H165L165.806 7.165C165.83 7.02165 165.822 6.87479 165.784 6.73466C165.745 6.59453 165.676 6.46448 165.582 6.35359C165.488 6.24269 165.371 6.15361 165.24 6.09254C165.108 6.03148 164.964 5.9999 164.819 6H159.667C159.43 6.00007 159.201 6.084 159.021 6.23688C158.84 6.38976 158.72 6.60168 158.681 6.835L157.014 16.835C156.99 16.9783 156.997 17.125 157.036 17.2651C157.074 17.4052 157.143 17.5352 157.237 17.646C157.331 17.7569 157.447 17.846 157.579 17.9071C157.711 17.9683 157.854 18 158 18H162V26L170.01 13.541C170.107 13.3899 170.162 13.2153 170.168 13.0358C170.174 12.8562 170.132 12.6782 170.046 12.5205C169.96 12.3628 169.833 12.2313 169.678 12.1397C169.524 12.0481 169.347 11.9998 169.168 12Z" fill="#31446B"/>
<rect x="185" width="33" height="32" rx="2" fill="#D5F0D8"/>
<path d="M206.168 12H202L202.806 7.165C202.83 7.02165 202.822 6.87479 202.784 6.73466C202.745 6.59453 202.676 6.46448 202.582 6.35359C202.488 6.24269 202.371 6.15361 202.24 6.09254C202.108 6.03148 201.964 5.9999 201.819 6H196.667C196.43 6.00007 196.201 6.084 196.021 6.23688C195.84 6.38976 195.72 6.60168 195.681 6.835L194.014 16.835C193.99 16.9783 193.997 17.125 194.036 17.2651C194.074 17.4052 194.143 17.5352 194.237 17.646C194.331 17.7569 194.447 17.846 194.579 17.9071C194.711 17.9683 194.854 18 195 18H199V26L207.01 13.541C207.107 13.3899 207.162 13.2153 207.168 13.0358C207.174 12.8562 207.132 12.6782 207.046 12.5205C206.96 12.3628 206.833 12.2313 206.678 12.1397C206.524 12.0481 206.347 11.9998 206.168 12Z" fill="#31446B"/>
<rect x="222" width="33" height="32" rx="2" fill="#D5F0D8"/>
<path d="M243.168 12H239L239.806 7.165C239.83 7.02165 239.822 6.87479 239.784 6.73466C239.745 6.59453 239.676 6.46448 239.582 6.35359C239.488 6.24269 239.371 6.15361 239.24 6.09254C239.108 6.03148 238.964 5.9999 238.819 6H233.667C233.43 6.00007 233.201 6.084 233.021 6.23688C232.84 6.38976 232.72 6.60168 232.681 6.835L231.014 16.835C230.99 16.9783 230.997 17.125 231.036 17.2651C231.074 17.4052 231.143 17.5352 231.237 17.646C231.331 17.7569 231.447 17.846 231.579 17.9071C231.711 17.9683 231.854 18 232 18H236V26L244.01 13.541C244.107 13.3899 244.162 13.2153 244.168 13.0358C244.174 12.8562 244.132 12.6782 244.046 12.5205C243.96 12.3628 243.833 12.2313 243.678 12.1397C243.524 12.0481 243.347 11.9998 243.168 12Z" fill="#31446B"/>
<rect x="259" width="33" height="32" rx="2" fill="#D5F0D8"/>
<path d="M280.168 12H276L276.806 7.165C276.83 7.02165 276.822 6.87479 276.784 6.73466C276.745 6.59453 276.676 6.46448 276.582 6.35359C276.488 6.24269 276.371 6.15361 276.24 6.09254C276.108 6.03148 275.964 5.9999 275.819 6H270.667C270.43 6.00007 270.201 6.084 270.021 6.23688C269.84 6.38976 269.72 6.60168 269.681 6.835L268.014 16.835C267.99 16.9783 267.997 17.125 268.036 17.2651C268.074 17.4052 268.143 17.5352 268.237 17.646C268.331 17.7569 268.447 17.846 268.579 17.9071C268.711 17.9683 268.854 18 269 18H273V26L281.01 13.541C281.107 13.3899 281.162 13.2153 281.168 13.0358C281.174 12.8562 281.132 12.6782 281.046 12.5205C280.96 12.3628 280.833 12.2313 280.678 12.1397C280.524 12.0481 280.347 11.9998 280.168 12Z" fill="#31446B"/>
<rect x="296" width="33" height="32" rx="2" fill="#D5F0D8"/>
<path d="M317.168 12H313L313.806 7.165C313.83 7.02165 313.822 6.87479 313.784 6.73466C313.745 6.59453 313.676 6.46448 313.582 6.35359C313.488 6.24269 313.371 6.15361 313.24 6.09254C313.108 6.03148 312.964 5.9999 312.819 6H307.667C307.43 6.00007 307.201 6.084 307.021 6.23688C306.84 6.38976 306.72 6.60168 306.681 6.835L305.014 16.835C304.99 16.9783 304.997 17.125 305.036 17.2651C305.074 17.4052 305.143 17.5352 305.237 17.646C305.331 17.7569 305.447 17.846 305.579 17.9071C305.711 17.9683 305.854 18 306 18H310V26L318.01 13.541C318.107 13.3899 318.162 13.2153 318.168 13.0358C318.174 12.8562 318.132 12.6782 318.046 12.5205C317.96 12.3628 317.833 12.2313 317.678 12.1397C317.524 12.0481 317.347 11.9998 317.168 12Z" fill="#31446B"/>
<rect x="333" width="33" height="32" rx="2" fill="#D5F0D8"/>
<path d="M354.168 12H350L350.806 7.165C350.83 7.02165 350.822 6.87479 350.784 6.73466C350.745 6.59453 350.676 6.46448 350.582 6.35359C350.488 6.24269 350.371 6.15361 350.24 6.09254C350.108 6.03148 349.964 5.9999 349.819 6H344.667C344.43 6.00007 344.201 6.084 344.021 6.23688C343.84 6.38976 343.72 6.60168 343.681 6.835L342.014 16.835C341.99 16.9783 341.997 17.125 342.036 17.2651C342.074 17.4052 342.143 17.5352 342.237 17.646C342.331 17.7569 342.447 17.846 342.579 17.9071C342.711 17.9683 342.854 18 343 18H347V26L355.01 13.541C355.107 13.3899 355.162 13.2153 355.168 13.0358C355.174 12.8562 355.132 12.6782 355.046 12.5205C354.96 12.3628 354.833 12.2313 354.678 12.1397C354.524 12.0481 354.347 11.9998 354.168 12Z" fill="#31446B"/>
<rect x="370" width="33" height="32" rx="2" fill="#D5F0D8"/>
<path d="M391.168 12H387L387.806 7.165C387.83 7.02165 387.822 6.87479 387.784 6.73466C387.745 6.59453 387.676 6.46448 387.582 6.35359C387.488 6.24269 387.371 6.15361 387.24 6.09254C387.108 6.03148 386.964 5.9999 386.819 6H381.667C381.43 6.00007 381.201 6.084 381.021 6.23688C380.84 6.38976 380.72 6.60168 380.681 6.835L379.014 16.835C378.99 16.9783 378.997 17.125 379.036 17.2651C379.074 17.4052 379.143 17.5352 379.237 17.646C379.331 17.7569 379.447 17.846 379.579 17.9071C379.711 17.9683 379.854 18 380 18H384V26L392.01 13.541C392.107 13.3899 392.162 13.2153 392.168 13.0358C392.174 12.8562 392.132 12.6782 392.046 12.5205C391.96 12.3628 391.833 12.2313 391.678 12.1397C391.524 12.0481 391.347 11.9998 391.168 12Z" fill="#31446B"/>
<rect x="407" width="33" height="32" rx="2" fill="#D5F0D8"/>
<path d="M428.168 12H424L424.806 7.165C424.83 7.02165 424.822 6.87479 424.784 6.73466C424.745 6.59453 424.676 6.46448 424.582 6.35359C424.488 6.24269 424.371 6.15361 424.24 6.09254C424.108 6.03148 423.964 5.9999 423.819 6H418.667C418.43 6.00007 418.201 6.084 418.021 6.23688C417.84 6.38976 417.72 6.60168 417.681 6.835L416.014 16.835C415.99 16.9783 415.997 17.125 416.036 17.2651C416.074 17.4052 416.143 17.5352 416.237 17.646C416.331 17.7569 416.447 17.846 416.579 17.9071C416.711 17.9683 416.854 18 417 18H421V26L429.01 13.541C429.107 13.3899 429.162 13.2153 429.168 13.0358C429.174 12.8562 429.132 12.6782 429.046 12.5205C428.96 12.3628 428.833 12.2313 428.678 12.1397C428.524 12.0481 428.347 11.9998 428.168 12Z" fill="#31446B"/>
<rect x="444" width="33" height="32" rx="2" fill="#D5F0D8"/>
<path d="M465.168 12H461L461.806 7.165C461.83 7.02165 461.822 6.87479 461.784 6.73466C461.745 6.59453 461.676 6.46448 461.582 6.35359C461.488 6.24269 461.371 6.15361 461.24 6.09254C461.108 6.03148 460.964 5.9999 460.819 6H455.667C455.43 6.00007 455.201 6.084 455.021 6.23688C454.84 6.38976 454.72 6.60168 454.681 6.835L453.014 16.835C452.99 16.9783 452.997 17.125 453.036 17.2651C453.074 17.4052 453.143 17.5352 453.237 17.646C453.331 17.7569 453.447 17.846 453.579 17.9071C453.711 17.9683 453.854 18 454 18H458V26L466.01 13.541C466.107 13.3899 466.162 13.2153 466.168 13.0358C466.174 12.8562 466.132 12.6782 466.046 12.5205C465.96 12.3628 465.833 12.2313 465.678 12.1397C465.524 12.0481 465.347 11.9998 465.168 12Z" fill="#31446B"/>
<rect x="481" width="33" height="32" rx="2" fill="#D5F0D8"/>
<path d="M502.168 12H498L498.806 7.165C498.83 7.02165 498.822 6.87479 498.784 6.73466C498.745 6.59453 498.676 6.46448 498.582 6.35359C498.488 6.24269 498.371 6.15361 498.24 6.09254C498.108 6.03148 497.964 5.9999 497.819 6H492.667C492.43 6.00007 492.201 6.084 492.021 6.23688C491.84 6.38976 491.72 6.60168 491.681 6.835L490.014 16.835C489.99 16.9783 489.997 17.125 490.036 17.2651C490.074 17.4052 490.143 17.5352 490.237 17.646C490.331 17.7569 490.447 17.846 490.579 17.9071C490.711 17.9683 490.854 18 491 18H495V26L503.01 13.541C503.107 13.3899 503.162 13.2153 503.168 13.0358C503.174 12.8562 503.132 12.6782 503.046 12.5205C502.96 12.3628 502.833 12.2313 502.678 12.1397C502.524 12.0481 502.347 11.9998 502.168 12Z" fill="#31446B"/>
<rect x="518" width="33" height="32" rx="2" fill="#D5F0D8"/>
<path d="M539.168 12H535L535.806 7.165C535.83 7.02165 535.822 6.87479 535.784 6.73466C535.745 6.59453 535.676 6.46448 535.582 6.35359C535.488 6.24269 535.371 6.15361 535.24 6.09254C535.108 6.03148 534.964 5.9999 534.819 6H529.667C529.43 6.00007 529.201 6.084 529.021 6.23688C528.84 6.38976 528.72 6.60168 528.681 6.835L527.014 16.835C526.99 16.9783 526.997 17.125 527.036 17.2651C527.074 17.4052 527.143 17.5352 527.237 17.646C527.331 17.7569 527.447 17.846 527.579 17.9071C527.711 17.9683 527.854 18 528 18H532V26L540.01 13.541C540.107 13.3899 540.162 13.2153 540.168 13.0358C540.174 12.8562 540.132 12.6782 540.046 12.5205C539.96 12.3628 539.833 12.2313 539.678 12.1397C539.524 12.0481 539.347 11.9998 539.168 12Z" fill="#31446B"/>
<rect x="555" width="33" height="32" rx="2" fill="#D5F0D8"/>
<path d="M576.168 12H572L572.806 7.165C572.83 7.02165 572.822 6.87479 572.784 6.73466C572.745 6.59453 572.676 6.46448 572.582 6.35359C572.488 6.24269 572.371 6.15361 572.24 6.09254C572.108 6.03148 571.964 5.9999 571.819 6H566.667C566.43 6.00007 566.201 6.084 566.021 6.23688C565.84 6.38976 565.72 6.60168 565.681 6.835L564.014 16.835C563.99 16.9783 563.997 17.125 564.036 17.2651C564.074 17.4052 564.143 17.5352 564.237 17.646C564.331 17.7569 564.447 17.846 564.579 17.9071C564.711 17.9683 564.854 18 565 18H569V26L577.01 13.541C577.107 13.3899 577.162 13.2153 577.168 13.0358C577.174 12.8562 577.132 12.6782 577.046 12.5205C576.96 12.3628 576.833 12.2313 576.678 12.1397C576.524 12.0481 576.347 11.9998 576.168 12Z" fill="#31446B"/>
<rect x="592" width="33" height="32" rx="2" fill="#D5F0D8"/>
<path d="M613.168 12H609L609.806 7.165C609.83 7.02165 609.822 6.87479 609.784 6.73466C609.745 6.59453 609.676 6.46448 609.582 6.35359C609.488 6.24269 609.371 6.15361 609.24 6.09254C609.108 6.03148 608.964 5.9999 608.819 6H603.667C603.43 6.00007 603.201 6.084 603.021 6.23688C602.84 6.38976 602.72 6.60168 602.681 6.835L601.014 16.835C600.99 16.9783 600.997 17.125 601.036 17.2651C601.074 17.4052 601.143 17.5352 601.237 17.646C601.331 17.7569 601.447 17.846 601.579 17.9071C601.711 17.9683 601.854 18 602 18H606V26L614.01 13.541C614.107 13.3899 614.162 13.2153 614.168 13.0358C614.174 12.8562 614.132 12.6782 614.046 12.5205C613.96 12.3628 613.833 12.2313 613.678 12.1397C613.524 12.0481 613.347 11.9998 613.168 12Z" fill="#31446B"/>
</svg>
